<svg xmlns="http://www.w3.org/2000/svg" fill="none" viewBox="0 0 1362 205"><path d="M13.33 155.59C4.4 149.4-.15 140.63-.31 129.4c-.17-10.42 2.56-18.73 8.18-24.97 5.62-6.2 14.26-10.58 25.83-13.1l21.7-4.54c7.22-1.53 12.47-3.56 15.73-6.2 3.27-2.6 4.92-6.16 4.92-10.7 0-4.55-2.02-8.51-6.03-11.5-4.05-2.92-9.42-4.41-16.12-4.41h-2.27c-7.23 0-13.14 1.94-17.77 5.78-4.63 3.9-7.52 9.26-8.68 16.12H1.22c.66-9.1 3.39-16.78 8.18-23.06a45.02 45.02 0 0 1 18.5-14.25c7.56-3.19 15.95-4.8 25.2-4.8 9.26 0 17.9 1.53 24.97 4.55 7.06 3.01 12.48 7.27 16.24 12.72A32.16 32.16 0 0 1 100 69.8c0 10.42-3.27 18.56-9.84 24.47-6.57 5.87-16.11 10.08-28.72 12.6l-19.4 3.8c-6.74 1.37-11.58 3.56-14.5 6.7a15.77 15.77 0 0 0-4.42 11.2c0 5.37 2.3 9.58 6.94 12.6 4.63 3.02 10.2 4.54 16.78 4.54h2.27c8.4.06 15.16-1.9 20.3-5.72 5.11-3.9 8-9.6 8.67-17.15h24.46c-1 13.43-6.28 23.8-15.75 31.12-9.5 7.3-22.23 10.95-38.18 10.95-14.63 0-26.36-3.1-35.29-9.34l.05.08Zm127.23 1.65c-8.19-5.08-14.63-12.44-19.3-22.1-4.67-9.67-7.03-21.08-7.03-34.18 0-13.1 2.36-24.5 7.03-34.17 4.67-9.67 11.11-17.03 19.3-22.1 8.18-5.1 17.43-7.67 27.76-7.67 9.67 0 17.6 1.73 23.85 5.16a43.31 43.31 0 0 1 15.5 14.51V39.57H231v122.89h-23.35v-17.2a43.32 43.32 0 0 1-15.5 14.51c-6.23 3.43-14.17 5.17-23.84 5.17-10.33 0-19.58-2.52-27.76-7.6v-.09Zm49.42-17.06c5.25-3.35 9.5-8.4 12.77-15.13 3.26-6.73 4.91-14.75 4.91-24.09s-1.65-17.35-4.9-24.09c-3.28-6.73-7.54-11.78-12.78-15.12a30.62 30.62 0 0 0-16.74-5.04h-2.44a30 30 0 0 0-16.94 5.04c-5.04 3.34-9.05 8.34-11.9 15-2.85 6.65-4.3 14.7-4.3 24.21 0 9.5 1.45 17.56 4.3 24.22 2.85 6.65 6.86 11.65 11.9 15a30.2 30.2 0 0 0 16.94 5.04h2.44a30.7 30.7 0 0 0 16.74-5.04Zm52.73-39.96c.05-39 24.2-65.83 61.01-65.83 31.94 0 53.14 20.75 56.07 48.76H335.1c-1.2-12.93-8.55-29-31.2-29-26.57 0-36.32 22.68-36.32 46.07s9.75 45.82 36.32 45.82c22.94 0 30-15.61 31.2-29.75h24.63c-1.7 28.52-23.88 49.75-55.83 49.75-37.06 0-61.2-26.81-61.2-65.82Zm168.57-41.57H371.4V39.47h102.98v19.18h-39.84v103.72H411.2V58.65h.04ZM605.6 99.72c0 41.32-24.34 66.12-56.28 66.12-19.67 0-31.7-8.84-38.6-18.93h-.5v59.01h-24.09V37.04h24.1v14.75h.5c6.9-8.84 18.92-18.43 38.6-18.43 31.93 0 56.27 25.08 56.27 66.36Zm-25.33 0c0-24.58-11.33-46.2-34.92-46.2-21.65 0-34.92 17.7-34.92 46.2 0 28.52 13.27 46.2 34.92 46.2 23.6 0 34.92-21.65 34.92-46.2Zm66.03 57.03a57.27 57.27 0 0 1-21.28-22.6c-5.17-9.68-7.73-20.75-7.73-33.19 0-12.44 2.56-23.5 7.73-33.18 5.16-9.67 12.23-17.19 21.28-22.6 9-5.42 19-8.1 30-8.1s21 2.68 30 8.1a57.28 57.28 0 0 1 21.28 22.6c5.16 9.67 7.73 20.74 7.73 33.18 0 12.44-2.56 23.51-7.73 33.18-5.17 9.67-12.23 17.2-21.28 22.6-9 5.42-19 8.1-30 8.1s-21-2.68-30-8.1Zm48.92-16.86c5.25-3.51 9.34-8.6 12.28-15.25 2.93-6.65 4.42-14.55 4.42-23.72 0-9.17-1.5-17.07-4.42-23.72-2.94-6.65-7.07-11.7-12.28-15.25a31.54 31.54 0 0 0-17.93-5.3h-2a31.45 31.45 0 0 0-17.98 5.3c-5.25 3.5-9.34 8.6-12.27 15.25-2.93 6.65-4.42 14.55-4.42 23.72 0 9.17 1.5 17.07 4.42 23.72 2.93 6.65 7.02 11.73 12.27 15.25a31.55 31.55 0 0 0 17.94 5.29h1.97c6.74 0 12.7-1.78 17.93-5.3Zm233.52-71.9c-3.85-9.67-9.42-17.23-16.74-22.73-7.27-5.5-15.9-8.22-25.9-8.22-7.74 0-14.43 1.53-20.17 4.54a48.67 48.67 0 0 0-14.5 11.45V-.07h-22.61v53.1a43.27 43.27 0 0 0-13.64-11.32c-5.66-3.1-12.68-4.67-21.03-4.67-9.67 0-18.06 2.8-25.2 8.47-7.11 5.66-12.57 13.34-16.33 23.1-3.8 9.75-5.66 20.53-5.66 32.35s1.94 23.27 5.78 32.94c3.85 9.66 9.43 17.23 16.7 22.72 7.3 5.5 15.95 8.23 25.95 8.23 8.3 0 15.02-1.45 20.1-4.3a43.79 43.79 0 0 0 13.27-11.65v57.02h22.6V148.9c3.6 4.75 8.18 8.6 13.76 11.53 5.58 2.97 12.57 4.42 20.91 4.42 10 0 18.64-2.77 25.9-8.35 7.33-5.58 12.9-13.18 16.75-22.85 3.84-9.67 5.78-20.58 5.78-32.69 0-12.1-1.94-23.26-5.78-32.97Zm-103.35 56.94c-2.31 6.6-5.62 11.73-9.96 15.33-4.34 3.64-9.7 5.41-16.11 5.41h-1.5c-9.17 0-16.03-4.13-20.61-12.4-4.6-8.26-6.9-19.04-6.9-32.3 0-8.56 1.07-16.16 3.18-22.9 2.15-6.7 5.29-12.03 9.46-15.95a20.88 20.88 0 0 1 14.88-5.9h1.49c9.5 0 16.77 3.92 21.85 11.77 5.09 7.89 7.65 18.88 7.65 32.97 0 9.34-1.16 17.32-3.43 23.97Zm81.74-.87c-1.9 6.7-4.92 11.98-9.01 15.83-4.1 3.82-9.34 5.72-15.7 5.72h-1.5c-9.5 0-16.81-3.92-21.85-11.77-5.1-7.9-7.65-18.85-7.65-32.94 0-9.34 1.16-17.35 3.43-23.96 2.32-6.67 5.62-11.8 9.96-15.4 4.34-3.6 9.7-5.4 16.12-5.4h1.48c9.18 0 16.04 4.09 20.62 12.27 4.6 8.23 6.9 19 6.9 32.48 0 8.68-.95 16.37-2.8 23.1Zm223.18-23.84c0-39 24.13-65.83 60.95-65.83 31.94 0 53.14 20.75 56.07 48.76h-24.63c-1.2-12.93-8.55-29-31.2-29-26.57 0-36.32 22.68-36.32 46.07s9.75 45.82 36.32 45.82c22.94 0 30-15.61 31.2-29.75h24.63c-1.69 28.52-23.88 49.75-55.83 49.75-37.06 0-61.2-26.81-61.2-65.82Zm168.55-41.57h-39.84V39.47H1362v19.18h-39.83v103.72h-23.35V58.65h.04Zm-252.02 3.14v79.96h-74.26l19.67-79.96h54.54m20.67-20.73h-91.4l-29.89 121.3h121.28V41.13Zm.04 0c10 40.4 19.96 80.88 29.96 121.29h21.15l-29.87-121.3h-21.24Zm.04-20.61h-20.66v20.6h20.66V20.5Zm-41.4-.01h-20.67V41.1h20.66V20.5Z" fill="#21201F"/><path d="M1026.13-.07h20.83c11.4 0 20.62 9.26 20.62 20.62h-62.07a20.6 20.6 0 0 1 20.68-20.62Z" fill="#21201F"/></svg>