<svg width="330" height="51" viewBox="0 0 330 51" fill="none" xmlns="http://www.w3.org/2000/svg">
<path d="M3.30171 38.5C1.14171 37 0.0417143 34.89 0.00171429 32.16C-0.0382857 29.64 0.621714 27.63 1.98171 26.12C3.34171 24.62 5.43171 23.56 8.23171 22.95L13.4817 21.85C15.2317 21.48 16.5017 20.99 17.2917 20.35C18.0817 19.72 18.4817 18.86 18.4817 17.76C18.4817 16.66 17.9917 15.7 17.0217 14.98C16.0417 14.27 14.7417 13.91 13.1217 13.91H12.5717C10.8217 13.91 9.39172 14.38 8.27172 15.31C7.15172 16.25 6.45171 17.55 6.17171 19.21H0.371714C0.531714 17.01 1.19171 15.15 2.35171 13.63C3.51171 12.11 5.00171 10.96 6.83171 10.18C8.66171 9.41002 10.6917 9.02002 12.9317 9.02002C15.1717 9.02002 17.2617 9.39002 18.9717 10.12C20.6817 10.85 21.9917 11.88 22.9017 13.2C23.8217 14.52 24.2717 16.04 24.2717 17.74C24.2717 20.26 23.4817 22.23 21.8917 23.66C20.3017 25.08 17.9917 26.1 14.9417 26.71L10.2417 27.63C8.61171 27.96 7.44171 28.49 6.73171 29.25C6.02171 30 5.66171 30.91 5.66171 31.96C5.66171 33.26 6.22171 34.28 7.34171 35.01C8.46171 35.74 9.81171 36.11 11.4017 36.11H11.9517C13.9817 36.11 15.6217 35.64 16.8617 34.71C18.1017 33.77 18.8017 32.39 18.9617 30.56H24.8817C24.6417 33.81 23.3617 36.32 21.0717 38.09C18.7717 39.86 15.6917 40.74 11.8317 40.74C8.29171 40.74 5.45171 39.99 3.29171 38.48L3.30171 38.5Z" fill="#21201F"/>
<path d="M34.0917 38.9001C32.1117 37.6701 30.5517 35.8901 29.4217 33.5501C28.2917 31.2101 27.7217 28.4501 27.7217 25.2801C27.7217 22.1101 28.2917 19.3501 29.4217 17.0101C30.5517 14.6701 32.1117 12.8901 34.0917 11.6601C36.0717 10.4301 38.3117 9.82007 40.8117 9.82007C43.1517 9.82007 45.0717 10.2401 46.5817 11.0701C48.0917 11.9001 49.3417 13.0701 50.3317 14.5801V10.4201H55.9817V40.1601H50.3317V36.0001C49.3417 37.5101 48.0917 38.6801 46.5817 39.5101C45.0717 40.3401 43.1517 40.7601 40.8117 40.7601C38.3117 40.7601 36.0717 40.1501 34.0917 38.9201V38.9001ZM46.0517 34.7701C47.3217 33.9601 48.3517 32.7401 49.1417 31.1101C49.9317 29.4801 50.3317 27.5401 50.3317 25.2801C50.3317 23.0201 49.9317 21.0801 49.1417 19.4501C48.3517 17.8201 47.3217 16.6001 46.0517 15.7901C44.7817 14.9801 43.4317 14.5701 42.0017 14.5701H41.4117C39.9017 14.5701 38.5317 14.9801 37.3117 15.7901C36.0917 16.6001 35.1217 17.8101 34.4317 19.4201C33.7417 21.0301 33.3917 22.9801 33.3917 25.2801C33.3917 27.5801 33.7417 29.5301 34.4317 31.1401C35.1217 32.7501 36.0917 33.9601 37.3117 34.7701C38.5417 35.5801 39.9117 35.9901 41.4117 35.9901H42.0017C43.4317 35.9901 44.7817 35.5801 46.0517 34.7701Z" fill="#21201F"/>
<path d="M58.8118 25.1002C58.8118 15.6602 64.6518 9.17017 73.5618 9.17017C81.2918 9.17017 86.4218 14.1902 87.1318 20.9702H81.1718C80.8818 17.8402 79.1018 13.9502 73.6218 13.9502C67.1918 13.9502 64.8318 19.4402 64.8318 25.1002C64.8318 30.7602 67.1918 36.1902 73.6218 36.1902C79.1718 36.1902 80.8818 32.4102 81.1718 28.9902H87.1318C86.7218 35.8902 81.3518 41.0302 73.6218 41.0302C64.6518 41.0302 58.8118 34.5402 58.8118 25.1002Z" fill="#21201F"/>
<path d="M99.5917 15.0502H89.9517V10.4102H114.872V15.0502H105.232V40.1502H99.5817V15.0502H99.5917Z" fill="#21201F"/>
<path d="M146.632 24.9802C146.632 34.9802 140.742 40.9802 133.012 40.9802C128.252 40.9802 125.342 38.8402 123.672 36.4002H123.552V50.6802H117.722V9.81017H123.552V13.3802H123.672C125.342 11.2402 128.252 8.92017 133.012 8.92017C140.742 8.92017 146.632 14.9902 146.632 24.9802ZM140.502 24.9802C140.502 19.0302 137.762 13.8002 132.052 13.8002C126.812 13.8002 123.602 18.0802 123.602 24.9802C123.602 31.8802 126.812 36.1602 132.052 36.1602C137.762 36.1602 140.502 30.9202 140.502 24.9802Z" fill="#21201F"/>
<path d="M156.482 38.7801C154.302 37.4701 152.582 35.6501 151.332 33.3101C150.082 30.9701 149.462 28.2901 149.462 25.2801C149.462 22.2701 150.082 19.5901 151.332 17.2501C152.582 14.9101 154.292 13.0901 156.482 11.7801C158.662 10.4701 161.082 9.82007 163.742 9.82007C166.402 9.82007 168.822 10.4701 171.002 11.7801C173.182 13.0901 174.902 14.9101 176.152 17.2501C177.402 19.5901 178.022 22.2701 178.022 25.2801C178.022 28.2901 177.402 30.9701 176.152 33.3101C174.902 35.6501 173.192 37.4701 171.002 38.7801C168.822 40.0901 166.402 40.7401 163.742 40.7401C161.082 40.7401 158.662 40.0901 156.482 38.7801ZM168.322 34.7001C169.592 33.8501 170.582 32.6201 171.292 31.0101C172.002 29.4001 172.362 27.4901 172.362 25.2701C172.362 23.0501 172.002 21.1401 171.292 19.5301C170.582 17.9201 169.582 16.7001 168.322 15.8401C167.052 14.9901 165.602 14.5601 163.982 14.5601H163.502C161.872 14.5601 160.432 14.9901 159.162 15.8401C157.892 16.6901 156.902 17.9201 156.192 19.5301C155.482 21.1401 155.122 23.0501 155.122 25.2701C155.122 27.4901 155.482 29.4001 156.192 31.0101C156.902 32.6201 157.892 33.8501 159.162 34.7001C160.432 35.5501 161.882 35.9801 163.502 35.9801H163.982C165.612 35.9801 167.052 35.5501 168.322 34.7001Z" fill="#21201F"/>
<path d="M224.99 17.12C224.06 14.78 222.71 12.95 220.95 11.62C219.19 10.29 217.09 9.63001 214.67 9.63001C212.81 9.63001 211.18 10 209.8 10.73C208.41 11.46 207.24 12.39 206.29 13.5V1.51001H200.81V13.5C199.98 12.42 198.88 11.51 197.51 10.76C196.14 10.01 194.45 9.63001 192.43 9.63001C190.09 9.63001 188.05 10.31 186.33 11.68C184.6 13.05 183.28 14.91 182.37 17.27C181.46 19.63 181 22.24 181 25.09C181 27.94 181.47 30.73 182.4 33.07C183.33 35.41 184.68 37.24 186.45 38.57C188.21 39.9 190.3 40.56 192.72 40.56C194.75 40.56 196.37 40.21 197.6 39.52C198.83 38.83 199.9 37.88 200.81 36.7V48.68H206.29V36.7C207.16 37.85 208.27 38.78 209.62 39.49C210.97 40.21 212.65 40.56 214.67 40.56C217.09 40.56 219.19 39.89 220.95 38.54C222.71 37.19 224.06 35.35 224.99 33.01C225.93 30.67 226.39 28.03 226.39 25.09C226.39 22.15 225.93 19.46 224.99 17.12ZM199.98 30.9C199.43 32.5 198.62 33.74 197.57 34.61C196.52 35.49 195.22 35.92 193.68 35.92H193.32C191.1 35.92 189.43 34.92 188.32 32.92C187.21 30.92 186.66 28.31 186.66 25.09C186.66 23.03 186.91 21.19 187.43 19.56C187.94 17.94 188.71 16.65 189.72 15.7C190.73 14.74 191.93 14.27 193.32 14.27H193.68C195.98 14.27 197.74 15.22 198.97 17.12C200.2 19.03 200.81 21.68 200.81 25.09C200.81 27.36 200.54 29.29 199.98 30.9ZM219.76 30.69C219.3 32.31 218.58 33.59 217.59 34.52C216.6 35.46 215.33 35.92 213.78 35.92H213.42C211.12 35.92 209.36 34.97 208.13 33.07C206.9 31.16 206.29 28.51 206.29 25.09C206.29 22.84 206.56 20.9 207.12 19.3C207.67 17.69 208.48 16.45 209.53 15.58C210.58 14.71 211.88 14.27 213.42 14.27H213.78C216 14.27 217.67 15.26 218.78 17.24C219.89 19.23 220.44 21.84 220.44 25.09C220.44 27.2 220.22 29.06 219.76 30.69Z" fill="#21201F"/>
<path d="M273.612 25.1002C273.612 15.6602 279.452 9.17017 288.362 9.17017C296.092 9.17017 301.222 14.1902 301.932 20.9702H295.972C295.682 17.8402 293.902 13.9502 288.422 13.9502C281.992 13.9502 279.632 19.4402 279.632 25.1002C279.632 30.7602 281.992 36.1902 288.422 36.1902C293.972 36.1902 295.682 32.4102 295.972 28.9902H301.932C301.522 35.8902 296.152 41.0302 288.422 41.0302C279.452 41.0302 273.612 34.5402 273.612 25.1002Z" fill="#21201F"/>
<path d="M314.402 15.0502H304.762V10.4102H329.682V15.0502H320.042V40.1502H314.392V15.0502H314.402Z" fill="#21201F"/>
<path d="M253.412 15.8V35.15H235.442L240.202 15.8H253.402M258.402 10.8H236.282L229.052 40.15H258.402V10.8Z" fill="#55D486"/>
<path d="M258.412 10.8C260.832 20.58 263.242 30.37 265.662 40.15H270.782L263.552 10.8H258.412Z" fill="#55D486"/>
<path d="M258.422 5.82007H253.422V10.8101H258.422V5.82007Z" fill="#55D486"/>
<path d="M248.402 5.82007H243.402V10.8101H248.402V5.82007Z" fill="#55D486"/>
<path d="M248.402 0.840088H253.442C256.202 0.840088 258.432 3.08009 258.432 5.83009H243.412C243.412 3.07009 245.652 0.840088 248.402 0.840088Z" fill="#55D486"/>
</svg>
